<svg xmlns="http://www.w3.org/2000/svg" id="a" data-name="Layer 1" width="1000" height="1000" viewBox="0 0 1000 1000">
  <path d="M500,634.325c-2.498,0-4.553,1.967-4.663,4.462l-9.711,226.045c-.371,8.03,6.039,14.743,14.077,14.743h.594c8.038,0,14.448-6.713,14.077-14.743l-9.711-226.045c-.11-2.496-2.165-4.462-4.663-4.462h0Z" fill="#ffc700"/>
  <path d="M500,365.675c2.498,0,4.553-1.967,4.663-4.462l9.711-226.045c.371-8.03-6.039-14.743-14.077-14.743h-.594c-8.038,0-14.448,6.713-14.077,14.743l9.711,226.045c.11,2.496,2.165,4.462,4.663,4.462h0Z" fill="#ffc700"/>
  <path d="M634.325,500c0,2.498,1.967,4.553,4.462,4.663l226.045,9.711c8.03,.371,14.743-6.039,14.743-14.077v-.594c0-8.038-6.713-14.448-14.743-14.077l-226.045,9.711c-2.496,.11-4.462,2.165-4.462,4.663h0Z" fill="#ffc700"/>
  <path d="M365.675,500c0-2.498-1.967-4.553-4.462-4.663l-226.045-9.711c-8.03-.371-14.743,6.039-14.743,14.077v.594c0,8.038,6.713,14.448,14.743,14.077l226.045-9.711c2.496-.11,4.462-2.165,4.462-4.663h0Z" fill="#ffc700"/>
  <path d="M405.018,594.982c-1.766-1.766-4.61-1.829-6.452-.142l-166.705,152.971c-5.941,5.415-6.155,14.695-.471,20.379l.42,.42c5.684,5.684,14.964,5.47,20.379-.471l152.971-166.705c1.687-1.842,1.624-4.686-.142-6.452h0Z" fill="#ffc700"/>
  <path d="M594.982,405.018c1.766,1.766,4.61,1.829,6.452,.142l166.705-152.971c5.941-5.415,6.155-14.695,.471-20.379l-.42-.42c-5.684-5.684-14.964-5.47-20.379,.471l-152.971,166.705c-1.687,1.842-1.624,4.686,.142,6.452h0Z" fill="#ffc700"/>
  <path d="M594.982,594.982c-1.766,1.766-1.829,4.61-.142,6.452l152.971,166.705c5.415,5.941,14.695,6.155,20.379,.471l.42-.42c5.684-5.684,5.47-14.964-.471-20.379l-166.705-152.971c-1.842-1.687-4.686-1.624-6.452,.142h0Z" fill="#ffc700"/>
  <path d="M405.018,405.018c1.766-1.766,1.829-4.61,.142-6.452L252.189,231.86c-5.415-5.941-14.695-6.155-20.379-.471l-.42,.42c-5.684,5.684-5.47,14.964,.471,20.379l166.705,152.971c1.842,1.687,4.686,1.624,6.452-.142h0Z" fill="#ffc700"/>
  <path d="M445.373,355.938l-23.216-210.474c-.788-7.142-6.822-12.547-14.007-12.547h0c-8.906,0-15.586,8.119-13.82,16.847,7.738,38.252,26.8,132.477,37.615,185.934-30.152-45.447-83.3-125.553-104.877-158.073-4.924-7.421-15.388-8.438-21.686-2.141h0c-5.081,5.081-5.525,13.17-1.032,18.777l132.411,165.241,10.443,13.032-1.83-16.598Z" fill="#ffc700"/>
  <path d="M359.505,436.76l-165.242-132.411c-5.607-4.493-13.696-4.048-18.776,1.033h0c-6.297,6.298-5.28,16.762,2.141,21.685,32.52,21.576,112.627,74.725,158.073,104.877-53.456-10.814-147.682-29.877-185.934-37.615-8.728-1.766-16.847,4.915-16.847,13.82h0c0,7.186,5.405,13.221,12.547,14.008l210.473,23.216,16.599,1.831-13.032-10.444Z" fill="#ffc700"/>
  <path d="M355.938,554.628l-210.473,23.214c-7.141,.788-12.547,6.822-12.547,14.007h0c0,8.907,8.118,15.587,16.847,13.821,38.252-7.739,132.478-26.801,185.934-37.615-45.446,30.152-125.553,83.302-158.073,104.878-7.421,4.923-8.437,15.388-2.14,21.685h0c5.08,5.081,13.169,5.525,18.776,1.032l165.243-132.411,13.032-10.442-16.599,1.831Z" fill="#ffc700"/>
  <path d="M436.76,640.495l-132.411,165.241c-4.493,5.607-4.048,13.696,1.032,18.776h.001c6.297,6.298,16.761,5.281,21.685-2.139,21.576-32.52,74.725-112.626,104.877-158.072-10.814,53.456-29.876,147.682-37.615,185.934-1.766,8.728,4.915,16.847,13.82,16.847h0c7.185,0,13.219-5.405,14.007-12.547l23.216-210.473,1.83-16.599-10.443,13.032Z" fill="#ffc700"/>
  <path d="M694.619,824.513c5.08-5.08,5.525-13.169,1.032-18.776l-132.411-165.241-10.443-13.032,1.831,16.599,23.215,210.473c.788,7.141,6.822,12.547,14.007,12.547h0c8.905,0,15.586-8.118,13.82-16.847-7.738-38.252-26.8-132.477-37.614-185.934,30.152,45.446,83.301,125.552,104.877,158.072,4.923,7.421,15.388,8.437,21.685,2.14h0Z" fill="#ffc700"/>
  <path d="M867.082,591.849c0-7.185-5.405-13.219-12.547-14.007l-210.473-23.214-16.599-1.831,13.032,10.442,165.243,132.411c5.607,4.493,13.696,4.048,18.776-1.032h0c6.297-6.297,5.28-16.761-2.14-21.685-32.52-21.576-112.627-74.726-158.072-104.878,53.456,10.814,147.682,29.877,185.933,37.615,8.728,1.766,16.847-4.915,16.847-13.82h0Z" fill="#ffc700"/>
  <g>
    <path d="M672.933,177.627c-21.577,32.521-74.725,112.626-104.877,158.073,10.814-53.457,29.876-147.682,37.614-185.935,1.766-8.729-4.915-16.847-13.82-16.847h0c-7.185,0-13.219,5.406-14.007,12.547l-23.215,210.474-1.831,16.598,10.444-13.032,132.41-165.241c4.493-5.607,4.048-13.696-1.032-18.777h0c-6.297-6.297-16.762-5.281-21.686,2.14Z" fill="#ffc700"/>
    <path d="M664.301,431.944c45.446-30.152,125.553-83.301,158.073-104.877,7.42-4.923,8.437-15.387,2.141-21.684h0c-5.08-5.081-13.17-5.526-18.777-1.033l-165.242,132.411-13.032,10.444,16.599-1.831,210.473-23.216c7.141-.788,12.547-6.822,12.547-14.007h0c0-8.907-8.118-15.587-16.847-13.821-38.252,7.739-132.477,26.801-185.933,37.615Z" fill="#ffc700"/>
  </g>
</svg>
